<mxfile host="Electron" modified="2023-05-27T13:34:05.455Z" agent="Mozilla/5.0 (Macintosh; Intel Mac OS X 10_15_7) AppleWebKit/537.36 (KHTML, like Gecko) draw.io/21.2.1 Chrome/112.0.5615.87 Electron/24.1.2 Safari/537.36" etag="6RKBThqGkgkD0_TG6Rx2" version="21.2.1" type="device">
  <diagram name="Page-1" id="H1nZVYqxkzLZFgEqRADx">
    <mxGraphModel dx="-2930" dy="2675" grid="1" gridSize="10" guides="1" tooltips="1" connect="1" arrows="1" fold="1" page="1" pageScale="1" pageWidth="850" pageHeight="1100" math="0" shadow="0">
      <root>
        <mxCell id="0" />
        <mxCell id="1" parent="0" />
        <mxCell id="AsBp8XiL8Dx4Y6rQVwFH-14078" value="R, W: 80, H: 65, ORDER: 20, GC: {14, 10, 9, 23, 1, 8, 4, 7, 18, 15, 24, 17, 6, 5, 19, 11, 33, 25, 3, 22} " style="text;html=1;strokeColor=none;fillColor=none;align=center;verticalAlign=middle;whiteSpace=wrap;rounded=0;" parent="1" vertex="1">
          <mxGeometry x="4300" width="800" height="30" as="geometry" />
        </mxCell>
        <mxCell id="A1Go9RzxD82dU9YXhFvT-1" value="" style="group;flipV=1;" vertex="1" connectable="0" parent="1">
          <mxGeometry x="4300" y="50" width="800" height="650" as="geometry" />
        </mxCell>
        <mxCell id="761dnnyQ54j-Cl0NHfQN-14079" value="14" style="rounded=0;whiteSpace=wrap;html=1;fillColor=#dae8fc;strokeColor=#6c8ebf;" parent="A1Go9RzxD82dU9YXhFvT-1" vertex="1">
          <mxGeometry y="510" width="140" height="140" as="geometry" />
        </mxCell>
        <mxCell id="761dnnyQ54j-Cl0NHfQN-14080" value="10" style="rounded=0;whiteSpace=wrap;html=1;fillColor=#dae8fc;strokeColor=#6c8ebf;" parent="A1Go9RzxD82dU9YXhFvT-1" vertex="1">
          <mxGeometry x="140" y="550" width="100" height="100" as="geometry" />
        </mxCell>
        <mxCell id="761dnnyQ54j-Cl0NHfQN-14081" value="9" style="rounded=0;whiteSpace=wrap;html=1;fillColor=#dae8fc;strokeColor=#6c8ebf;" parent="A1Go9RzxD82dU9YXhFvT-1" vertex="1">
          <mxGeometry x="240" y="560" width="90" height="90" as="geometry" />
        </mxCell>
        <mxCell id="761dnnyQ54j-Cl0NHfQN-14082" value="23" style="rounded=0;whiteSpace=wrap;html=1;fillColor=#e1d5e7;strokeColor=#9673a6;" parent="A1Go9RzxD82dU9YXhFvT-1" vertex="1">
          <mxGeometry x="330" y="420" width="230" height="230" as="geometry" />
        </mxCell>
        <mxCell id="761dnnyQ54j-Cl0NHfQN-14083" value="1" style="rounded=0;whiteSpace=wrap;html=1;fillColor=#dae8fc;strokeColor=#6c8ebf;" parent="A1Go9RzxD82dU9YXhFvT-1" vertex="1">
          <mxGeometry x="240" y="550" width="10" height="10" as="geometry" />
        </mxCell>
        <mxCell id="761dnnyQ54j-Cl0NHfQN-14084" value="8" style="rounded=0;whiteSpace=wrap;html=1;fillColor=#dae8fc;strokeColor=#6c8ebf;" parent="A1Go9RzxD82dU9YXhFvT-1" vertex="1">
          <mxGeometry x="250" y="480" width="80" height="80" as="geometry" />
        </mxCell>
        <mxCell id="761dnnyQ54j-Cl0NHfQN-14085" value="4" style="rounded=0;whiteSpace=wrap;html=1;fillColor=#dae8fc;strokeColor=#6c8ebf;" parent="A1Go9RzxD82dU9YXhFvT-1" vertex="1">
          <mxGeometry x="140" y="510" width="40" height="40" as="geometry" />
        </mxCell>
        <mxCell id="761dnnyQ54j-Cl0NHfQN-14086" value="7" style="rounded=0;whiteSpace=wrap;html=1;fillColor=#dae8fc;strokeColor=#6c8ebf;" parent="A1Go9RzxD82dU9YXhFvT-1" vertex="1">
          <mxGeometry x="180" y="480" width="70" height="70" as="geometry" />
        </mxCell>
        <mxCell id="761dnnyQ54j-Cl0NHfQN-14087" value="18" style="rounded=0;whiteSpace=wrap;html=1;fillColor=#dae8fc;strokeColor=#6c8ebf;" parent="A1Go9RzxD82dU9YXhFvT-1" vertex="1">
          <mxGeometry y="330" width="180" height="180" as="geometry" />
        </mxCell>
        <mxCell id="761dnnyQ54j-Cl0NHfQN-14088" value="15" style="rounded=0;whiteSpace=wrap;html=1;fillColor=#dae8fc;strokeColor=#6c8ebf;" parent="A1Go9RzxD82dU9YXhFvT-1" vertex="1">
          <mxGeometry x="180" y="330" width="150" height="150" as="geometry" />
        </mxCell>
        <mxCell id="761dnnyQ54j-Cl0NHfQN-14089" value="24" style="rounded=0;whiteSpace=wrap;html=1;fillColor=#e1d5e7;strokeColor=#9673a6;" parent="A1Go9RzxD82dU9YXhFvT-1" vertex="1">
          <mxGeometry x="560" y="410" width="240" height="240" as="geometry" />
        </mxCell>
        <mxCell id="761dnnyQ54j-Cl0NHfQN-14090" value="17" style="rounded=0;whiteSpace=wrap;html=1;fillColor=#e1d5e7;strokeColor=#9673a6;" parent="A1Go9RzxD82dU9YXhFvT-1" vertex="1">
          <mxGeometry x="330" y="250" width="170" height="170" as="geometry" />
        </mxCell>
        <mxCell id="761dnnyQ54j-Cl0NHfQN-14091" value="6" style="rounded=0;whiteSpace=wrap;html=1;fillColor=#e1d5e7;strokeColor=#9673a6;" parent="A1Go9RzxD82dU9YXhFvT-1" vertex="1">
          <mxGeometry x="500" y="360" width="60" height="60" as="geometry" />
        </mxCell>
        <mxCell id="761dnnyQ54j-Cl0NHfQN-14092" value="5" style="rounded=0;whiteSpace=wrap;html=1;fillColor=#e1d5e7;strokeColor=#9673a6;" parent="A1Go9RzxD82dU9YXhFvT-1" vertex="1">
          <mxGeometry x="560" y="360" width="50" height="50" as="geometry" />
        </mxCell>
        <mxCell id="761dnnyQ54j-Cl0NHfQN-14093" value="19" style="rounded=0;whiteSpace=wrap;html=1;fillColor=#e1d5e7;strokeColor=#9673a6;" parent="A1Go9RzxD82dU9YXhFvT-1" vertex="1">
          <mxGeometry x="610" y="220" width="190" height="190" as="geometry" />
        </mxCell>
        <mxCell id="761dnnyQ54j-Cl0NHfQN-14094" value="11" style="rounded=0;whiteSpace=wrap;html=1;fillColor=#e1d5e7;strokeColor=#9673a6;" parent="A1Go9RzxD82dU9YXhFvT-1" vertex="1">
          <mxGeometry x="500" y="250" width="110" height="110" as="geometry" />
        </mxCell>
        <mxCell id="761dnnyQ54j-Cl0NHfQN-14095" value="33" style="rounded=0;whiteSpace=wrap;html=1;" parent="A1Go9RzxD82dU9YXhFvT-1" vertex="1">
          <mxGeometry width="330" height="330" as="geometry" />
        </mxCell>
        <mxCell id="761dnnyQ54j-Cl0NHfQN-14096" value="25" style="rounded=0;whiteSpace=wrap;html=1;fillColor=#e1d5e7;strokeColor=#9673a6;" parent="A1Go9RzxD82dU9YXhFvT-1" vertex="1">
          <mxGeometry x="330" width="250" height="250" as="geometry" />
        </mxCell>
        <mxCell id="761dnnyQ54j-Cl0NHfQN-14097" value="3" style="rounded=0;whiteSpace=wrap;html=1;fillColor=#e1d5e7;strokeColor=#9673a6;" parent="A1Go9RzxD82dU9YXhFvT-1" vertex="1">
          <mxGeometry x="580" y="220" width="30" height="30" as="geometry" />
        </mxCell>
        <mxCell id="761dnnyQ54j-Cl0NHfQN-14098" value="22" style="rounded=0;whiteSpace=wrap;html=1;fillColor=#e1d5e7;strokeColor=#9673a6;" parent="A1Go9RzxD82dU9YXhFvT-1" vertex="1">
          <mxGeometry x="580" width="220" height="220" as="geometry" />
        </mxCell>
      </root>
    </mxGraphModel>
  </diagram>
</mxfile>
